<svg xmlns="http://www.w3.org/2000/svg" viewBox="0 0 918.4 930.4" xml:space="preserve"><style type="text/css">.st0{fill:#FFFFFF;}</style><path class="st0" d="M61.5,237.1v459.2l397.7,229.6l397.7-229.6V237.1L459.2,7.5L61.5,237.1z M788.7,276.5V657L459.2,847.2 L129.7,656.9V276.5L459.2,86.2L788.7,276.5z"/><path class="st0" d="M370.8,560.9v82.1c0,5.7,3.5,10.7,8.9,12.6c1.3,0.4,2.6,0.7,4,0.7c4.1,0,8-2,10.4-5.4l46.6-65.4L370.8,560.9z"/><path class="st0" d="M627.6,251.5c-3.9-2.9-9.1-3.3-13.4-1L227.2,458.6c-4.6,2.5-7.3,7.5-6.9,12.8c0.3,5.2,3.7,9.8,8.7,11.6 l107.6,37.9l229.1-201.7L388.4,539.1l180.3,63.5c1.3,0.5,2.7,0.7,4.2,0.7c2.4,0,4.7-0.7,6.7-1.9c3.3-2.1,5.5-5.5,6-9.4l47.3-327.6 C633.6,259.4,631.6,254.5,627.6,251.5z"/></svg>
