<svg version="1.1" xmlns="http://www.w3.org/2000/svg" viewBox="0 0 918.4 925.4"><style type="text/css">.st0{fill:#FFFFFF;}</style><path class="st0" d="M706.6,434.6L476.9,225.3c-10-9.2-25.4-9.2-35.4,0L211.8,434.6c-10.7,9.8-11.5,26.4-1.7,37.1 c5,5.5,12,8.6,19.4,8.6h36.7V690c0,8.3,6.8,15,15,15h125.9c8.3,0,15-6.7,15-15V562.6h74V690c0,8.3,6.8,15,15,15h125.9 c8.3,0,15-6.7,15.1-15V480.2h36.7c14.5,0,26.3-11.7,26.3-26.2C715.2,446.6,712.1,439.5,706.6,434.6z"/><path class="st0" d="M648.3,248.4H547.2l116.2,105.6v-90.6C663.4,255.2,656.6,248.4,648.3,248.4z"/><path class="st0" d="M61.5,232.1v459.2l397.7,229.6l397.7-229.6V232.1L459.2,2.5L61.5,232.1z M788.7,271.5V652L459.2,842.2 L129.7,651.9V271.5L459.2,81.2L788.7,271.5z"/></svg>