<svg aria-labelledby="jquery-icon" role="img" xmlns="http://www.w3.org/2000/svg" viewBox="0 0 69.78 73.71"><defs><style>.cls-1{fill:#fff;}</style></defs><titleid="jquery-icon">Jquery icon</title><path class="cls-1" d="M13,11.35c-4.45,6.39-3.9,14.7-.5,21.48l.25.49.16.3.1.18.17.32.33.55.18.31.38.58.16.25.54.79,0,0,.09.12.5.66.18.24.46.56.18.21c.21.25.42.49.64.73v0l0,0,.65.69.21.21.52.51.21.2.71.64h0l.13.11.64.54.27.22.54.42L21,43l.6.43.22.16.06,0,.59.39.25.17.92.56.25.14.69.39.38.2.5.25.11.06.2.09.78.37.17.07.91.38.22.09.86.31.11,0,1,.32.23.07c.33.09.65.21,1,.27,21.49,3.92,27.73-12.91,27.73-12.91-5.24,6.83-14.55,8.63-23.36,6.63-.34-.08-.66-.18-1-.28l-.24-.07-1-.31-.13-.05-.84-.31L32,40.36l-.9-.37L31,39.91l-.76-.36-.22-.1-.59-.3L29,38.94l-.71-.39L28,38.41l-.92-.56-.24-.17-.66-.43L26,37.1l-.62-.44-.27-.21L24.56,36l-.25-.2-.69-.58-.08-.07-.73-.66-.2-.2-.53-.51-.2-.21c-.22-.22-.43-.45-.65-.68l0,0c-.22-.25-.44-.49-.65-.74l-.17-.21c-.16-.19-.32-.38-.47-.58l-.17-.21c-.19-.24-.37-.48-.55-.73C14.3,23.73,12.54,14.52,16.45,7M26.78,6c-3.22,4.63-3,10.82-.53,15.71a20.35,20.35,0,0,0,1.42,2.37,11.37,11.37,0,0,0,1.65,2.07c.23.25.47.5.72.74l.19.19c.24.24.49.46.74.69l0,0h0l.86.71.2.15q.44.35.9.66l0,0,.41.27.19.13c.22.14.44.28.67.41l.09.05c.2.12.39.23.59.33l.21.11.41.22.07,0,.86.41.19.07.7.29.3.11.65.23.3.09a5.84,5.84,0,0,0,.93.27C56.15,35.07,60,22.3,60,22.3c-3.45,5-10.14,7.34-17.27,5.49-.32-.08-.63-.18-.94-.27l-.28-.09-.66-.23-.3-.11-.71-.29-.19-.08c-.29-.12-.58-.26-.86-.4l-.44-.22L38.08,26l-.54-.31-.14-.07-.66-.41-.2-.13-.43-.29c-.31-.21-.61-.43-.9-.65L35,24a20.09,20.09,0,0,1-6.78-9.66,15,15,0,0,1,1.17-12m9-.32a9.67,9.67,0,0,0-.77,9.33,13.17,13.17,0,0,0,7.54,7l.41.14.19.06a5.72,5.72,0,0,0,.59.17C55.5,20.47,58,14,58.64,13.05c-2.17,3.13-5.83,3.88-10.32,2.79a10.33,10.33,0,0,1-1.08-.33Q46.58,15.27,46,15a12.42,12.42,0,0,1-2.26-1.38c-4-3-6.52-8.86-3.89-13.59"/><path class="cls-1" d="M36.32,57.21H33.76a.34.34,0,0,0-.31.25l-.91,4.2-.9,4.19a.35.35,0,0,1-.32.26h-1.8c-1.79,0-1.59-1.24-1.22-2.94v-.05l0-.21v0l.08-.44.09-.46.09-.48.41-2,.42-2a.21.21,0,0,0-.21-.25H26.62a.34.34,0,0,0-.31.25l-.57,2.68-.56,2.67h0l-.05.25c-.65,3-.48,5.79,3.05,5.87h5.64a.34.34,0,0,0,.31-.26l1.2-5.61,1.19-5.62A.2.2,0,0,0,36.32,57.21ZM9,57.18H6.16a.35.35,0,0,0-.32.25l-.26,1.18-.27,1.17a.2.2,0,0,0,.2.25H8.34a.33.33,0,0,0,.31-.25l.26-1.17.26-1.18A.21.21,0,0,0,9,57.18Zm-.81,3.66H5.32a.33.33,0,0,0-.31.25l-.4,1.76-.4,1.75-.11.51L3.72,66.9l-.38,1.8c0,.14-.09.36-.13.49s-.53,1.58-1.42,1.56H1.68l-.77,0h0A.35.35,0,0,0,.59,71L.3,72.21,0,73.44a.2.2,0,0,0,.19.26H2.52c2.22,0,3.38-1.22,4.13-4.76l.88-4.06.82-3.8A.2.2,0,0,0,8.15,60.84Zm52.05-1-.12-.48L60,58.9l-.05-.25c-.23-.89-.91-1.4-2.37-1.4H50.8a.34.34,0,0,0-.31.25l-.11.5-.12.58,0,.16-1.07,5-1,4.73a1,1,0,0,0,0,.38c0,.07.29.13.43.13h2.13a1.41,1.41,0,0,0,.4-.06c.08,0,.19-.31.22-.45l.38-1.87.38-1.88h0l0-.25.46-2.15.4-1.9a.34.34,0,0,1,.32-.25H60A.19.19,0,0,0,60.2,59.88Zm8.63-4.37H66.16a.57.57,0,0,0-.4.21l-4.74,7c-.08.12-.17.1-.21,0l-.34-1.54a.37.37,0,0,0-.32-.25h-3a.19.19,0,0,0-.19.25l1.37,4.79a1.2,1.2,0,0,1,0,.5l-.6,2.31a.19.19,0,0,0,.19.25h3a.34.34,0,0,0,.32-.25l.6-2.31a1.3,1.3,0,0,1,.22-.46l7.7-10.22c.08-.12,0-.21-.11-.21Zm-24.23,6h0a.32.32,0,0,1-.3.27H40.43a.17.17,0,0,1-.18-.21h0v0l0-.06a2.42,2.42,0,0,1,2.53-1.63C44.4,59.85,44.71,60.63,44.6,61.5ZM43.46,57c-5,0-6.14,3-6.8,6.05s-.6,6,4.54,6h1.44l3.27,0a.34.34,0,0,0,.3-.26l.21-1,0-.2.25-1.21a.21.21,0,0,0-.21-.26H41.89c-1.84,0-2.39-.48-2.18-1.92h7.38a.29.29,0,0,0,.27-.19l0-.06h0C48.47,59.83,48.16,57,43.46,57ZM20,61.49l-.07.24h0l-.56,2-.56,2a.36.36,0,0,1-.33.24H15.54c-2.23,0-2.78-1.75-2.23-4.33s1.61-4.28,3.81-4.44C20.13,56.93,20.73,59,20,61.49Zm2,4.29a33.49,33.49,0,0,0,1.71-5.33c.43-2.61-.88-6.39-5.93-6.39s-7.2,3.61-8,7.54S10,69,15,69h7.62a.38.38,0,0,0,.32-.25l.64-2.45a.19.19,0,0,0-.19-.25H22.19a.16.16,0,0,1-.18-.18Zm24.85-2.26a.17.17,0,0,1-.17.17.17.17,0,1,1,0-.34A.17.17,0,0,1,46.88,63.52Z"/></svg>