<svg aria-labelledby="react-icon" role="img"  xmlns="http://www.w3.org/2000/svg" viewBox="0 0 21.96 19.54"><title id="react-icon">React icon</title><path style="fill:#fff" d="M11,7.79a2,2,0,1,1-2,2,2,2,0,0,1,2-2"/><path style="fill:#fff" d="M18.06,6.33l-.71-.22c0-.16.08-.32.11-.48C18,3,17.64.94,16.45.25s-3,0-4.91,1.67c-.19.17-.37.33-.55.51l-.36-.34c-2-1.76-4-2.5-5.17-1.81S4,2.91,4.46,5.37c0,.24.1.49.16.73l-.81.25C1.48,7.16,0,8.43,0,9.75s1.59,2.73,4,3.55l.59.19c-.07.26-.12.52-.17.78-.46,2.42-.1,4.34,1,5s3.16,0,5.08-1.7c.15-.13.31-.27.46-.42l.59.54c1.87,1.6,3.71,2.25,4.85,1.59S18,16.54,17.53,14c0-.19-.08-.39-.13-.59l.41-.13C20.32,12.48,22,11.13,22,9.75S20.43,7.15,18.06,6.33Zm-5.91-3.7c1.62-1.41,3.14-2,3.83-1.57s1,2.14.56,4.38c0,.14-.06.29-.1.44a21.27,21.27,0,0,0-2.94-.47,21.64,21.64,0,0,0-1.85-2.32ZM6.48,10.88c.2.38.41.76.63,1.13s.45.76.69,1.13c-.72-.08-1.4-.19-2-.32C6,12.19,6.21,11.54,6.48,10.88Zm0-2.21C6.21,8,6,7.39,5.79,6.77c.62-.14,1.29-.25,2-.34-.24.36-.46.73-.68,1.1S6.68,8.29,6.48,8.67ZM7,9.77c.29-.6.6-1.19.94-1.77h0C8.25,7.42,8.6,6.86,9,6.31c.65,0,1.32-.08,2-.08s1.35,0,2,.08c.38.55.73,1.11,1.06,1.69s.65,1.16,1,1.76c-.29.6-.61,1.2-1,1.78h0c-.33.58-.68,1.14-1,1.7-.65,0-1.32.07-2,.07s-1.35,0-2-.06c-.38-.56-.74-1.13-1.07-1.71S7.27,10.37,7,9.77ZM14.86,12c.22-.39.43-.77.63-1.17a17.53,17.53,0,0,1,.74,1.93,16.8,16.8,0,0,1-2.05.35C14.42,12.76,14.64,12.38,14.86,12Zm.63-3.34c-.21-.38-.42-.77-.64-1.14s-.43-.74-.66-1.1c.7.09,1.37.21,2,.35C16,7.39,15.76,8,15.49,8.67ZM11,3.77a17.56,17.56,0,0,1,1.29,1.56,24.86,24.86,0,0,0-2.59,0A18.65,18.65,0,0,1,11,3.77ZM5.93,1.09c.74-.43,2.36.18,4.07,1.7l.33.3A23.92,23.92,0,0,0,8.46,5.41a23,23,0,0,0-2.93.46l-.15-.68h0C5,3.08,5.24,1.49,5.93,1.09ZM4.86,12.59l-.54-.17a7.94,7.94,0,0,1-2.56-1.36A1.93,1.93,0,0,1,.94,9.75c0-.8,1.19-1.82,3.18-2.51L4.87,7A24.12,24.12,0,0,0,5.94,9.77,23.12,23.12,0,0,0,4.86,12.59ZM10,16.86A7.87,7.87,0,0,1,7.49,18.4h0A1.92,1.92,0,0,1,6,18.46c-.7-.4-1-1.94-.59-4,0-.25.1-.49.16-.73a22.36,22.36,0,0,0,3,.43,24.14,24.14,0,0,0,1.88,2.33ZM11,15.8A19.35,19.35,0,0,1,9.7,14.22c.42,0,.84,0,1.28,0s.89,0,1.33,0A19.93,19.93,0,0,1,11,15.8Zm5.69,1.31A1.93,1.93,0,0,1,16,18.47c-.69.4-2.17-.12-3.76-1.49-.19-.16-.37-.33-.56-.51a21,21,0,0,0,1.84-2.33,22.76,22.76,0,0,0,3-.46l.12.53A7.83,7.83,0,0,1,16.71,17.11Zm.8-4.69h0l-.37.12A21.72,21.72,0,0,0,16,9.76,21.82,21.82,0,0,0,17.1,7l.65.21C19.78,7.92,21,9,21,9.75S19.68,11.7,17.51,12.42Z"/></svg>