<svg xmlns="http://www.w3.org/2000/svg" viewBox="0 0 795.4 918.4"><defs><style>.cls-1{fill:#fff;}</style></defs><title>pgFichier 1</title><g id="Calque_2" data-name="Calque 2"><g id="Calque_1-2" data-name="Calque 1"><path class="cls-1" d="M0,229.6V688.8L397.7,918.4,795.4,688.8V229.6L397.7,0ZM727.2,269V649.5L397.7,839.7,68.2,649.4V269L397.7,78.7Z"/><path class="cls-1" d="M661.4,414.34l-38.12-38.11a9.51,9.51,0,0,0-6.74-2.78H607v-9.53a9.6,9.6,0,0,0-2.78-6.75L528,281c-15.28-15.29-40.89-40.9-92.5-40.9S360.28,263.7,343,281a9.54,9.54,0,0,0,6.75,16.27c76.85,0,85.75,32.63,85.75,57.17,0,20.39-11.55,35.92-18.92,43.83l62.25,62.26c16.85-11.4,40.79-24.85,51.95-23.86v13.05a9.57,9.57,0,0,0,2.79,6.75l47.64,47.64a9.6,9.6,0,0,0,6.74,2.78h.33a9.39,9.39,0,0,0,6.84-3.24l66.7-76.22A9.56,9.56,0,0,0,661.4,414.34Z"/><path class="cls-1" d="M221.23,593.3c-9.28,9.28-14.41,21.63-14.41,35.88a49.18,49.18,0,0,0,85.55,33.09L464.41,473,403,411.56Z"/></g></g></svg>