<?xml version="1.0" encoding="utf-8"?>
<!-- Generator: Adobe Illustrator 22.0.0, SVG Export Plug-In . SVG Version: 6.00 Build 0)  -->
<svg version="1.1" id="Calque_1" xmlns="http://www.w3.org/2000/svg" xmlns:xlink="http://www.w3.org/1999/xlink" x="0px" y="0px"
	 viewBox="0 0 918.4 925.4" style="enable-background:new 0 0 918.4 925.4;" xml:space="preserve">
<style type="text/css">
	.st0{fill:#FEB960;}
</style>
<polygon class="st0" points="780.6,188.1 779.5,187.4 779.5,266.2 788.7,271.5 788.7,652 459.2,842.2 129.7,651.9 129.7,271.5 
	459.2,81.2 605.6,165.7 605.6,87 599.1,83.3 459.2,2.5 61.5,232.1 61.5,691.3 459.2,920.9 856.9,691.3 856.9,232.1 "/>
<polygon class="st0" points="758.6,626.6 628.1,701.6 628.1,40.2 758.6,40.2 "/>
<polygon class="st0" points="599.1,718.4 468.6,793.4 468.6,240.7 599.1,240.7 "/>
<polygon class="st0" points="283,706.9 152.5,633.2 152.5,362.8 283,362.8 "/>
<polygon class="st0" points="441,793.4 310.6,715 310.6,444.6 441,444.6 "/>
</svg>
