<svg aria-labelledby="salesforce-icon" role="img"  xmlns="http://www.w3.org/2000/svg" viewBox="0 0 25.57 17.9"><title id="SFCC-icon">SalesForce Commerce CLoud icon</title><path style="fill:#fff" d="M7.18,8.49s-.19,0-.4,0a.69.69,0,0,0-.43.11.32.32,0,0,0-.13.29.36.36,0,0,0,0,.19l.09.09h0a.67.67,0,0,0,.43.08,2.6,2.6,0,0,0,.4-.05h0Z"/><path style="fill:#fff" d="M16.06,7.6a.47.47,0,0,0-.43.21,1.09,1.09,0,0,0-.14.59,1.16,1.16,0,0,0,.14.6.46.46,0,0,0,.43.2.46.46,0,0,0,.42-.2,1.16,1.16,0,0,0,.14-.6h0a1.09,1.09,0,0,0-.14-.59A.46.46,0,0,0,16.06,7.6Z"/><path style="fill:#fff" d="M10.1,7.59a.48.48,0,0,0-.43.22.85.85,0,0,0-.12.35h1.06a.72.72,0,0,0-.1-.35A.45.45,0,0,0,10.1,7.59Z"/><path style="fill:#fff" d="M22,7.59a.47.47,0,0,0-.42.22.85.85,0,0,0-.12.35h1.06a.72.72,0,0,0-.1-.35A.46.46,0,0,0,22,7.59Z"/><path style="fill:#fff" d="M20.05,2.42a5.33,5.33,0,0,0-2.22.48A4.54,4.54,0,0,0,13.88.56,4.46,4.46,0,0,0,10.64,2a5,5,0,0,0-8.51,5A4.34,4.34,0,0,0,0,10.67,4.29,4.29,0,0,0,4.27,15a4.14,4.14,0,0,0,.87-.09,4.6,4.6,0,0,0,8.55.2A4,4,0,0,0,19,13.44a5.64,5.64,0,0,0,1.08.1,5.56,5.56,0,0,0,0-11.12ZM5.47,8.88c0,.45-.32.72-.85.72a1.64,1.64,0,0,1-.76-.17l-.15-.09s0,0,0-.06h0L3.81,9c0-.05,0,0,.07,0L4,9a1.22,1.22,0,0,0,.68.2c.23,0,.37-.12.37-.29H5c0-.18-.22-.25-.47-.33H4.48c-.34-.1-.71-.24-.71-.68h0a.73.73,0,0,1,.81-.71h0a1.57,1.57,0,0,1,.75.2s0,0,0,.06l-.11.29s-.07,0-.07,0a1.44,1.44,0,0,0-.66-.17c-.21,0-.34.1-.34.25h0c0,.17.23.24.49.33h0c.35.11.71.26.71.68Zm2.15.58-.1,0-.38.07a3.14,3.14,0,0,1-.45,0,2.34,2.34,0,0,1-.39,0A.83.83,0,0,1,6,9.43a.57.57,0,0,1-.19-.24.67.67,0,0,1-.07-.33.78.78,0,0,1,.08-.35A.69.69,0,0,1,6,8.27a1.09,1.09,0,0,1,.31-.14,1.5,1.5,0,0,1,.37-.05h.23l.24,0V8.05c0-.2,0-.29-.12-.35a.59.59,0,0,0-.36-.1,1.59,1.59,0,0,0-.65.15l0,0s0,0,0,0l-.11-.28a.06.06,0,0,1,0-.06,1.67,1.67,0,0,1,.46-.17,2.69,2.69,0,0,1,.4,0,1.06,1.06,0,0,1,.68.2.83.83,0,0,1,.24.66V9.41A.05.05,0,0,1,7.62,9.46Zm1,0a0,0,0,0,1,0,.05H8.18a0,0,0,0,1,0-.05V6.34a0,0,0,0,1,0,0h.39a0,0,0,0,1,0,0Zm2.45-1s0,0,0,0H9.55a.71.71,0,0,0,.17.5.73.73,0,0,0,.5.17,1.38,1.38,0,0,0,.61-.11.05.05,0,0,1,.06,0l.1.27a0,0,0,0,1,0,.07,1.49,1.49,0,0,1-.74.15,1.45,1.45,0,0,1-.54-.09.9.9,0,0,1-.37-.25,1,1,0,0,1-.22-.37,1.65,1.65,0,0,1,0-1,.92.92,0,0,1,.2-.38,1,1,0,0,1,.34-.26,1.1,1.1,0,0,1,.49-.1,1,1,0,0,1,.43.09,1,1,0,0,1,.28.21,1,1,0,0,1,.19.35h0A1.7,1.7,0,0,1,11.07,8.49Zm.47.94-.15-.09s0,0,0-.06h0l.1-.29a0,0,0,0,1,.07,0l.09,0a1.2,1.2,0,0,0,.68.2c.22,0,.36-.12.36-.29h0c0-.18-.21-.25-.47-.33h-.05c-.35-.1-.72-.24-.72-.68h0a.74.74,0,0,1,.82-.71h.05a1.6,1.6,0,0,1,.75.2s0,0,0,.06L13,7.74s-.07,0-.07,0a1.45,1.45,0,0,0-.67-.17c-.2,0-.33.1-.33.25h0c0,.17.22.24.48.33h0c.34.11.71.26.71.68h0c0,.45-.32.72-.85.72A1.62,1.62,0,0,1,11.54,9.43ZM15,7.29l-.06.31c0,.05-.05,0-.05,0h-.49L14,9.53a3.24,3.24,0,0,1-.13.5,1,1,0,0,1-.19.33.59.59,0,0,1-.28.19,1,1,0,0,1-.36.06.86.86,0,0,1-.22,0l-.13,0a0,0,0,0,1,0-.06l.11-.3a0,0,0,0,1,.06,0l.08,0,.12,0a.47.47,0,0,0,.17,0,.36.36,0,0,0,.14-.1.93.93,0,0,0,.1-.22,3.11,3.11,0,0,0,.09-.36l.33-1.86h-.33s-.05,0-.05,0l.06-.31s0,0,0,0H14v-.1a1.23,1.23,0,0,1,.3-.68.85.85,0,0,1,.63-.22h.2l.15,0h0a0,0,0,0,1,0,0l-.11.31s0,0-.06,0H15l-.12,0a.41.41,0,0,0-.16,0,.24.24,0,0,0-.12.07.5.5,0,0,0-.11.16c-.05.16-.07.33-.08.34h.48S15,7.26,15,7.29Zm2.11,1.58a1,1,0,0,1-.2.38.86.86,0,0,1-.34.25,1,1,0,0,1-.46.1,1,1,0,0,1-.47-.1.86.86,0,0,1-.34-.25,1,1,0,0,1-.2-.38,1.87,1.87,0,0,1,0-.94,1,1,0,0,1,.54-.64,1.13,1.13,0,0,1,.47-.09,1.11,1.11,0,0,1,.46.09,1,1,0,0,1,.54.64,1.87,1.87,0,0,1,0,.94Zm1.83-1.55h0a3,3,0,0,1-.11.31s0,0-.05,0l-.17,0-.2,0a.48.48,0,0,0-.31.33A1.37,1.37,0,0,0,18,8.4V9.5a0,0,0,0,1,0,.05h-.39a0,0,0,0,1-.05-.05V7.29a0,0,0,0,1,.05,0H18a0,0,0,0,1,0,0v.18a.67.67,0,0,1,.25-.18.75.75,0,0,1,.38-.06,1,1,0,0,1,.25,0A0,0,0,0,1,18.89,7.32Zm1.85,2.16a1.63,1.63,0,0,1-.62.12,1.08,1.08,0,0,1-.86-.33A1.27,1.27,0,0,1,19,8.4,1.41,1.41,0,0,1,19,7.93a1.07,1.07,0,0,1,.21-.38,1,1,0,0,1,.36-.26,1.21,1.21,0,0,1,.48-.09l.33,0,.29.07s0,0,0,0-.07.2-.11.3-.05,0-.05,0a1.6,1.6,0,0,0-.46-.06.58.58,0,0,0-.49.21,1,1,0,0,0-.16.58.86.86,0,0,0,.18.6.71.71,0,0,0,.51.18h.24a1.17,1.17,0,0,0,.2-.06s0,0,0,0h0l.11.29A0,0,0,0,1,20.74,9.48Zm2.2-1a0,0,0,0,1,0,0H21.41a.72.72,0,0,0,.18.5.7.7,0,0,0,.5.17,1.42,1.42,0,0,0,.61-.11.05.05,0,0,1,.06,0l.09.27s0,.06,0,.07a1.52,1.52,0,0,1-.74.15,1.45,1.45,0,0,1-.54-.09,1,1,0,0,1-.38-.25A1.12,1.12,0,0,1,21,8.89a1.85,1.85,0,0,1-.07-.48A1.49,1.49,0,0,1,21,7.94a.92.92,0,0,1,.2-.38.88.88,0,0,1,.34-.26A1.07,1.07,0,0,1,22,7.2a.93.93,0,0,1,.42.09.76.76,0,0,1,.28.21.78.78,0,0,1,.19.35A1.59,1.59,0,0,1,22.94,8.49Z"/></svg>