<svg xmlns="http://www.w3.org/2000/svg" viewBox="0 0 17.37 16.26"><defs><style>.cls-1{fill:#fff;}</style></defs><title>spFichier 1</title><g id="Calque_2" data-name="Calque 2"><g id="Capa_1" data-name="Capa 1"><path class="cls-1" d="M0,13.69l9.92,2.57V0L0,2.57ZM5.06,8.88A2.89,2.89,0,0,1,3.24,6.15,2.53,2.53,0,0,1,5.75,3.37a3.06,3.06,0,0,1,1.69.47L7.11,5.52a2.47,2.47,0,0,0-1.39-.44.86.86,0,0,0-1,.89c0,.59.37.85,1.23,1.31A2.83,2.83,0,0,1,7.71,10,2.59,2.59,0,0,1,5,12.89a3.38,3.38,0,0,1-1.88-.56l.31-1.73a3,3,0,0,0,1.66.58.94.94,0,0,0,1-1C6.17,9.61,5.86,9.28,5.06,8.88Z"/><path class="cls-1" d="M15.2,5.65a2.16,2.16,0,0,0-1,.25L12.9,4.58A2,2,0,0,0,13,3.84,2.15,2.15,0,0,0,11,1.69V6a2.42,2.42,0,0,0,.65-.13L13.1,7.34a1.91,1.91,0,0,0-.06.48,2.16,2.16,0,0,0,.52,1.4L12.28,10.5a2.08,2.08,0,0,0-1-.25,1.66,1.66,0,0,0-.32,0v4.26a1.66,1.66,0,0,0,.32,0,2.16,2.16,0,0,0,2.16-2.16,2.42,2.42,0,0,0,0-.47l2-2a2.16,2.16,0,0,0-.18-4.32Z"/></g></g></svg>