<svg  xmlns="http://www.w3.org/2000/svg" viewBox="0 0 918.4 930.4" ><style type="text/css">.st0{fill:#FFFFFF;}</style><path class="st0" d="M61.5,236.1v459.2l397.7,229.6l397.7-229.6V236.1L459.2,6.5L61.5,236.1z M788.7,275.5V656L459.2,846.2 L129.7,655.9V275.5L459.2,85.2L788.7,275.5z"/><path class="st0" d="M534.3,201.9l-154.8,1.6c-7.1,0.1-12.8,5.9-12.8,13l0.8,82.2c0.1,7.1,5.9,12.8,13,12.8l154.8-1.6 c7.1-0.1,12.8-5.9,12.8-13l-0.8-82.2C547.2,207.5,541.4,201.8,534.3,201.9z"/><path class="st0" d="M535.6,335.7l-154.8,1.6c-0.2,0-0.4-0.1-0.7-0.1l-42.3,131.3c-1,3-0.8,6.3,0.5,9.2l111,251.8l-2.3-221.7 c-20.5-6.9-31.5-29.1-24.6-49.6c6.9-20.5,29.1-31.5,49.6-24.6c20.5,6.9,31.5,29.1,24.6,49.6c-3.8,11.3-12.6,20.2-23.8,24.3 l2.3,221.7l105.8-254c1.2-2.9,1.3-6.2,0.3-9.2l-45-130.4C536.1,335.6,535.8,335.7,535.6,335.7z"/></svg>