<?xml version="1.0" encoding="UTF-8"?> <svg xmlns="http://www.w3.org/2000/svg" viewBox="0 0 25.65 24.55"><defs><style>.cls-1{fill:#fff;}</style></defs><title>confluenceFichier 1</title><g id="Calque_2" data-name="Calque 2"><g id="Calque_2-2" data-name="Calque 2"><path class="cls-1" d="M1,18.75c-.27.41-.55.93-.83,1.31A.8.8,0,0,0,.4,21.17l5.3,3.26a.79.79,0,0,0,1.11-.28h0c.21-.34.49-.83.8-1.31,2.11-3.47,4.19-3.05,8-1.22l5.26,2.5A.78.78,0,0,0,22,23.74v0L24.49,18a.82.82,0,0,0-.42-1.07c-1.11-.52-3.32-1.56-5.3-2.53C11.66,11,5.6,11.19,1,18.75Z"></path><path class="cls-1" d="M24.7,5.82c.27-.42.55-.94.83-1.32a.81.81,0,0,0-.28-1.11L20,.13A.87.87,0,0,0,18.8.34l0,0c-.21.35-.49.84-.8,1.32-2.11,3.47-4.19,3.05-8,1.22L4.73.41A.76.76,0,0,0,3.66.79v0L1.13,6.55a.82.82,0,0,0,.41,1.07c1.11.52,3.33,1.56,5.31,2.53C14,13.58,20.05,13.34,24.7,5.82Z"></path></g></g></svg> 