<?xml version="1.0" encoding="UTF-8"?> <svg xmlns="http://www.w3.org/2000/svg" aria-labelledby="photoshop-icon" role="img" viewBox="0 0 23 23"><title id="photoshop-icon">Photoshop icon</title><path style="fill:#fff" d="M7.55,7.32a4.85,4.85,0,0,0-1.14.11v3.62a3.89,3.89,0,0,0,.92.07c1.48,0,2.39-.74,2.39-2S8.94,7.32,7.55,7.32Z"></path><path style="fill:#fff" d="M0,0V23H23V0ZM11.33,12a5.67,5.67,0,0,1-4,1.29,6.64,6.64,0,0,1-.95-.05v4.39H3.66V5.48A23.31,23.31,0,0,1,7.4,5.23a5.82,5.82,0,0,1,3.75,1,3.58,3.58,0,0,1,1.32,2.84A3.88,3.88,0,0,1,11.33,12Zm4.15,5.81a6.28,6.28,0,0,1-2.88-.62l.5-2a5.38,5.38,0,0,0,2.38.67c.84,0,1.18-.29,1.18-.74s-.27-.68-1.3-1c-1.85-.62-2.56-1.62-2.54-2.68,0-1.66,1.42-2.92,3.63-2.92A6,6,0,0,1,19,9l-.49,1.92a4.32,4.32,0,0,0-1.93-.52c-.67,0-1,.28-1,.73s.34.64,1.43,1c1.69.58,2.4,1.44,2.42,2.75C19.34,16.55,18,17.77,15.48,17.77Z"></path></svg> 