<?xml version="1.0" encoding="UTF-8"?> <svg xmlns="http://www.w3.org/2000/svg" viewBox="0 0 24.13 24.14"><defs><style>.cls-1{fill:#fff;}</style></defs><title>phpFichier 1</title><g id="Calque_2" data-name="Calque 2"><g id="Capa_1" data-name="Capa 1"><path class="cls-1" d="M21.13,15.44H18.69l-.49,2.65H16.08L17.87,8.4h4.45a2.91,2.91,0,0,1,1.34.31A12.07,12.07,0,0,0,.43,15.26L1.69,8.4H6.14a2.73,2.73,0,0,1,2.78,3.06c-.19,1.31-1,4-4,4H2.51L2,18.09H1.61A12.07,12.07,0,0,0,24,14.21a11.51,11.51,0,0,0,.18-1.87A11.51,11.51,0,0,1,24,14.21,3.53,3.53,0,0,1,21.13,15.44Zm-7.54,0s.73-3.68.86-4.51-.48-1-1.37-1H11.73l-1,5.57H8.59l1.79-9.69h2.11L12,8.43h2.58c1.18,0,2.24.64,2.11,1.8s-1,5.24-1,5.24Z"></path><path class="cls-1" d="M6.78,11.68C6.89,10.93,6.84,10,5.2,10H3.53l-.74,4H4.44A2.44,2.44,0,0,0,6.78,11.68Z"></path><path class="cls-1" d="M19.71,10l-.74,4h1.65A2.44,2.44,0,0,0,23,11.68c.11-.75.06-1.73-1.58-1.73Z"></path></g></g></svg> 