<?xml version="1.0" encoding="UTF-8"?> <svg xmlns="http://www.w3.org/2000/svg" aria-labelledby="sketch-icon" role="img" viewBox="0 0 25.93 24.1"><title id="sketch-icon">sketch icon</title><path style="fill:#fff" d="M25.93,6.93a.64.64,0,0,0-.19-.45L19.88.2h0l0,0h0l0,0h0l0,0h0l0,0H6.24l0,0h0l0,0h0l0,0h0l0,0h0L.17,6.51h0l0,.07,0,0,0,0h0s0,0,0,0l0,0v0a.43.43,0,0,1,0,.05v0a.09.09,0,0,0,0,0V7S0,7,0,7a.06.06,0,0,0,0,0s0,0,0,0,0,0,0,0h0v0l0,0,0,0v0L12.47,23.85l0,.06h0l.06,0,0,0,.06,0h0l.08,0h0l.07,0h.23l.07,0h0l.08,0h0l.06,0,0,0,.06,0h0l.05-.06L25.79,7.33A.59.59,0,0,0,25.93,6.93ZM9.1,7.55h7.72L13,21.21ZM8.75,6.31,7.32,1.24H18.61L17.18,6.31Zm11-4.46,4.16,4.46H18.46ZM6.2,1.85,7.47,6.31H2Zm1.62,5.7,3.64,12.87L1.85,7.55Zm6.65,12.87L18.11,7.55h6Z"></path></svg> 