<?xml version="1.0" encoding="UTF-8"?> <svg xmlns="http://www.w3.org/2000/svg" viewBox="0 0 25.92 32"><defs><style>.cls-1{fill:#fff;}</style></defs><title>timberFichier 1</title><g id="Calque_2" data-name="Calque 2"><g id="Calque_2-2" data-name="Calque 2"><polygon class="cls-1" points="14.84 0 8.02 9.57 11.9 9.57 3.97 20.74 7.89 20.74 0 31.83 14.84 32 14.84 0"></polygon><polyline class="cls-1" points="21.91 17.77 22.43 18.54 14.84 18.54 14.84 17.77"></polyline><polyline class="cls-1" points="14.92 3.8 15.44 4.57 14.84 4.57 14.84 3.8"></polyline><polyline class="cls-1" points="15.95 5.35 16.47 6.12 14.84 6.12 14.84 5.35"></polyline><polyline class="cls-1" points="16.99 6.9 17.64 7.67 14.84 7.67 14.84 6.9"></polyline><polyline class="cls-1" points="18.02 8.45 18.68 9.23 14.84 9.23 14.84 8.45"></polyline><polyline class="cls-1" points="19.18 10.01 19.83 10.79 14.84 10.79 14.84 9.98"></polyline><polyline class="cls-1" points="17.51 11.56 18.03 12.33 14.84 12.34 14.84 11.56"></polyline><polyline class="cls-1" points="18.55 13.12 19.19 13.88 14.84 13.89 14.84 13.11"></polyline><polyline class="cls-1" points="19.7 14.66 20.23 15.44 14.84 15.44 14.84 14.67"></polyline><polyline class="cls-1" points="20.75 16.22 21.39 16.99 14.84 16.99 14.84 16.22"></polyline><polyline class="cls-1" points="19.32 19.32 19.84 20.1 14.84 20.1 14.84 19.32"></polyline><polyline class="cls-1" points="20.49 20.88 21.01 21.65 14.84 21.66 14.84 20.88"></polyline><polyline class="cls-1" points="25.4 27.08 25.92 27.86 14.84 27.86 14.84 27.08"></polyline><polyline class="cls-1" points="24.11 25.54 24.63 26.31 14.84 26.31 14.84 25.54"></polyline><polyline class="cls-1" points="22.95 23.98 23.46 24.75 14.84 24.75 14.84 23.98"></polyline><polyline class="cls-1" points="21.78 22.43 22.3 23.2 14.84 23.2 14.84 22.43"></polyline></g></g></svg> 