<?xml version="1.0" encoding="UTF-8"?> <svg xmlns="http://www.w3.org/2000/svg" aria-labelledby="wordpress-icon" role="img" viewBox="0 0 24.34 24.34"><title id="wordpress-icon">Wordpress icon</title><path style="fill:#fff" d="M7.3,7.51H6L9.62,17.87,11.67,12l-1.59-4.5H8.66v-1h6.28v1H13.47l3.67,10.36,1.32-3.76C20.18,9.28,17,7.78,17,6.7A1.94,1.94,0,0,1,19,4.76h.17A10.2,10.2,0,0,0,3.69,6.52H7.3v1Z"></path><path style="fill:#fff" d="M2,12.17a10.18,10.18,0,0,0,5.41,9l-4.6-13A10.16,10.16,0,0,0,2,12.17Z"></path><path style="fill:#fff" d="M21,7.15a7.18,7.18,0,0,1-.12,2.79h0l-.15.44h0a9.18,9.18,0,0,1-.34,1L17,21.16A10.2,10.2,0,0,0,21,7.15Z"></path><path style="fill:#fff" d="M9,21.86a10.17,10.17,0,0,0,3.14.49,9.9,9.9,0,0,0,3-.45l-3-8.42Z"></path><path style="fill:#fff" d="M20.78,3.56a12.19,12.19,0,1,0,3.56,8.61A12.14,12.14,0,0,0,20.78,3.56ZM12.17,23.48A11.31,11.31,0,1,1,23.48,12.17,11.32,11.32,0,0,1,12.17,23.48Z"></path></svg> 