<?xml version="1.0" standalone="no"?>
<!DOCTYPE svg PUBLIC "-//W3C//DTD SVG 20010904//EN"
 "http://www.w3.org/TR/2001/REC-SVG-20010904/DTD/svg10.dtd">
<svg version="1.0" xmlns="http://www.w3.org/2000/svg"
 width="260.000000pt" height="260.000000pt" viewBox="0 0 260.000000 260.000000"
 preserveAspectRatio="xMidYMid meet">
<metadata>
Created by potrace 1.11, written by Peter Selinger 2001-2013
</metadata>
<g transform="translate(0.000000,260.000000) scale(0.100000,-0.100000)"
fill="#000000" stroke="none">
<path d="M785 2254 c-280 -162 -525 -301 -543 -310 l-32 -16 0 -627 0 -626
376 -215 c207 -118 398 -227 423 -241 25 -14 102 -58 171 -97 l124 -71 66 36
c88 49 110 62 220 125 52 30 115 66 140 80 25 14 122 70 215 123 94 54 179
103 190 109 11 6 75 43 143 81 l122 70 0 625 0 625 -538 307 c-296 169 -545
309 -553 311 -8 3 -243 -128 -524 -289z m674 94 c80 -46 153 -87 163 -93 10
-5 120 -68 244 -140 125 -71 243 -139 263 -150 20 -11 66 -38 104 -59 l67 -38
0 -565 0 -565 -22 -19 c-13 -10 -26 -18 -30 -19 -4 0 -57 -29 -119 -65 -61
-36 -113 -65 -115 -65 -3 0 -22 -11 -44 -25 -22 -14 -64 -38 -92 -54 -29 -16
-129 -73 -223 -126 -93 -54 -190 -109 -213 -122 -24 -14 -65 -37 -90 -52 l-47
-27 -46 26 c-25 15 -65 38 -90 52 -240 136 -413 235 -459 262 -30 18 -133 77
-228 131 l-172 98 2 569 3 569 55 31 c30 16 82 46 115 65 33 19 69 39 80 46
11 6 180 102 375 214 195 112 359 203 364 203 5 0 75 -37 155 -82z"/>
<path d="M641 1947 c-190 -108 -192 -117 -22 -117 l127 0 0 -617 0 -618 79
-47 c55 -33 91 -48 115 -48 l35 0 0 665 0 665 126 0 125 0 0 100 0 100 -220 0
-221 0 -144 -83z"/>
<path d="M1340 1265 l0 -765 188 0 c174 0 189 2 222 22 19 11 60 35 91 52 30
17 99 56 152 86 l97 55 1 80 c0 44 0 138 0 209 -1 174 -4 180 -145 279 l-26
18 62 42 c100 67 101 73 103 325 l1 215 -53 34 c-28 18 -54 33 -56 33 -3 0
-36 18 -73 40 l-69 40 -247 0 -248 0 0 -765z m516 387 l1 -183 -56 -39 c-55
-39 -58 -40 -143 -40 l-88 0 0 225 0 226 143 -3 142 -3 1 -183z m-51 -488 c37
-25 55 -44 56 -58 1 -25 1 -385 0 -403 -1 -10 -37 -13 -146 -13 l-145 0 0 255
0 255 90 0 c87 0 92 -1 145 -36z"/>
</g>
</svg>
